# xmcd CD database file
#
# Track frame offsets:
#	150
#	15943
#	32101
#	48770
#	67640
#	84180
#	99212
#	115212
#	132281
#	149234
#	164687
#
# Disc length: 2415 seconds
#
# Revision: 1
# Processed by: cddbd v1.5.2PL0 Copyright (c) Steve Scherf et al.
# Submitted via: CDex 1.51
#
DISCID=84096d0b
DTITLE=Florida Georgia Line - Here's To The Good Times
DYEAR=2012
DGENRE=Country
TTITLE0=Cruise
TTITLE1=Round Here
TTITLE2=Get Your Shine On
TTITLE3=Here's To The Good Times
TTITLE4=It'z Just What We Do
TTITLE5=Stay
TTITLE6=Hell Raisin' Heat Of The Summer
TTITLE7=Tell Me How You Like It
TTITLE8=Tip It Back
TTITLE9=Dayum, Baby (Feat. Sarah Buxton)
TTITLE10=Party People (Feat. Jaren Johnston Of The Cadillac Black)
EXTD=YEAR: 2012
EXTT0=
EXTT1=
EXTT2=
EXTT3=
EXTT4=
EXTT5=
EXTT6=
EXTT7=
EXTT8=
EXTT9=
EXTT10=
PLAYORDER=
